<svg width="24" height="24" viewBox="0 0 24 24" fill="none" xmlns="http://www.w3.org/2000/svg">
<path fill-rule="evenodd" clip-rule="evenodd" d="M4 5.5L20 12L4 19V14L8.85189 12.9785C9.91054 12.7557 9.91054 11.2443 8.85189 11.0215L4 10V5.5Z" fill="#959494"/>
<path d="M20 12L20.3006 12.6871C20.5769 12.5662 20.7539 12.2916 20.7499 11.9901C20.7459 11.6885 20.5617 11.4187 20.2823 11.3052L20 12ZM4 5.5L4.28228 4.80515C4.05105 4.71121 3.78825 4.73845 3.5812 4.87782C3.37415 5.01719 3.25 5.25042 3.25 5.5H4ZM4 19H3.25C3.25 19.2531 3.37766 19.4891 3.58949 19.6277C3.80131 19.7662 4.06873 19.7886 4.30061 19.6871L4 19ZM4 14L3.84549 13.2661C3.49843 13.3392 3.25 13.6453 3.25 14H4ZM8.85189 12.9785L9.0064 13.7125H9.0064L8.85189 12.9785ZM8.85189 11.0215L8.69738 11.7554H8.69738L8.85189 11.0215ZM4 10H3.25C3.25 10.3547 3.49843 10.6608 3.84549 10.7339L4 10ZM20.2823 11.3052L4.28228 4.80515L3.71772 6.19485L19.7177 12.6948L20.2823 11.3052ZM4.30061 19.6871L20.3006 12.6871L19.6994 11.3129L3.69939 18.3129L4.30061 19.6871ZM3.25 14V19H4.75V14H3.25ZM4.15451 14.7339L9.0064 13.7125L8.69738 12.2446L3.84549 13.2661L4.15451 14.7339ZM9.0064 13.7125C10.859 13.3224 10.859 10.6776 9.00639 10.2875L8.69738 11.7554C8.78528 11.7739 8.82491 11.81 8.84729 11.8398C8.87494 11.8767 8.89588 11.9327 8.89588 12C8.89588 12.0673 8.87494 12.1233 8.84729 12.1602C8.82491 12.19 8.78528 12.2261 8.69738 12.2446L9.0064 13.7125ZM9.00639 10.2875L4.15451 9.26609L3.84549 10.7339L8.69738 11.7554L9.00639 10.2875ZM3.25 5.5V10H4.75V5.5H3.25Z" fill="#959494"/>
</svg>
